<?xml version="1.0" encoding="utf-8"?>
<!-- Generator: Adobe Illustrator 28.0.0, SVG Export Plug-In . SVG Version: 6.00 Build 0)  -->
<svg version="1.1" id="Layer_1" xmlns="http://www.w3.org/2000/svg" xmlns:xlink="http://www.w3.org/1999/xlink" x="0px" y="0px"
	 viewBox="0 0 460 160" style="enable-background:new 0 0 460 160;" xml:space="preserve">
<style type="text/css">
	.st0{fill:#CD1B6B;}
	.st1{fill:#008EC2;}
	.st2{fill:#221F1F;}
</style>
<g>
	<path class="st0" d="M109.1,70.9L97.3,59c-0.5-0.5-1.3-0.5-1.8,0l-5.7,5.7c-0.5,0.5-0.5,1.3,0,1.8l11.8,11.8c1.6,1.6,1.6,4.2,0,5.7
		L76,109.7c-1.1,1.1-2.5,1.6-3.9,1.6c-1.4,0-2.8-0.5-3.9-1.6l-7-7c-0.7-0.7-1.6-1-2.5-1c-0.4,0-0.7,0.1-1.1,0.2l-9.2,4.6
		c-0.3,0.1-0.6,0.1-0.8,0.1c-1.7,0-3-1.7-2.4-3.4l4.6-9.2c0.4-1.3,0.1-2.6-0.8-3.6l-7.6-7.6c-1.8-1.8-1.8-4.8,0-6.7l26.3-26.3
		c0.8-0.8,1.8-1.1,2.8-1.1c1,0,2,0.4,2.8,1.1l1.3,1.3c0.5,0.5,1.3,0.5,1.8,0l5.7-5.7c0.5-0.5,0.5-1.3,0-1.8l-0.9-0.9
		c-2.7-2.7-6.4-4.5-10.3-4.6c-4-0.1-7.8,1.4-10.6,4.2L34.4,68.1c-3,3-4.7,7.1-4.7,11.4c0,4.3,1.7,8.4,4.7,11.4l2.9,2.9
		c0.3,0.3,0.4,0.8,0.2,1.2l-1.8,3.5c-0.2,0.4-0.4,0.9-0.6,1.4c-1.3,4-0.7,8.4,1.8,11.8c2.5,3.4,6.4,5.5,10.6,5.5
		c1.4,0,2.8-0.2,4.2-0.7c0.5-0.2,0.9-0.4,1.4-0.6l3.5-1.8c0.4-0.2,0.9-0.1,1.2,0.2l2.6,2.6c2.9,2.9,6.7,4.8,10.7,5
		c4.7,0.3,9.1-1.4,12.3-4.7l25.6-25.6C114.8,85.8,114.8,76.6,109.1,70.9z"/>
	<path class="st1" d="M65,89.1L76.8,101c0.5,0.5,1.3,0.5,1.8,0l5.7-5.7c0.5-0.5,0.5-1.3,0-1.8L72.5,81.7c-1.6-1.6-1.6-4.2,0-5.7
		l25.6-25.6c1.1-1.1,2.5-1.6,3.9-1.6c1.4,0,2.8,0.5,3.9,1.6l7,7c0.7,0.7,1.6,1,2.5,1c0.4,0,0.7-0.1,1.1-0.2l9.2-4.6
		c0.3-0.1,0.6-0.1,0.8-0.1c1.7,0,3,1.7,2.4,3.4l-4.6,9.2c-0.4,1.3-0.1,2.6,0.8,3.6l7.6,7.6c1.8,1.8,1.8,4.8,0,6.7l-26.3,26.3
		c-0.8,0.8-1.8,1.1-2.8,1.1c-1,0-2-0.4-2.8-1.1l-1.3-1.3c-0.5-0.5-1.3-0.5-1.8,0l-5.7,5.7c-0.5,0.5-0.5,1.3,0,1.8l0.9,0.9
		c2.7,2.7,6.4,4.5,10.3,4.6c4,0.1,7.8-1.4,10.6-4.2l25.7-25.7c3-3,4.7-7.1,4.7-11.4c0-4.3-1.7-8.4-4.7-11.4l-2.9-2.9
		c-0.3-0.3-0.4-0.8-0.2-1.2l1.8-3.5c0.2-0.4,0.4-0.9,0.6-1.4c1.3-4,0.7-8.4-1.8-11.8c-2.5-3.4-6.4-5.5-10.6-5.5
		c-1.4,0-2.8,0.2-4.2,0.7c-0.5,0.2-0.9,0.4-1.4,0.6l-3.5,1.8c-0.4,0.2-0.9,0.1-1.2-0.2l-2.6-2.6c-2.9-2.9-6.7-4.8-10.7-5
		c-4.7-0.3-9.1,1.4-12.3,4.7L65,68.5C59.3,74.2,59.3,83.4,65,89.1z"/>
</g>
<g>
	<path class="st2" d="M177.2,107.5l-18.6-46.9c-0.4-1.1,0.1-1.7,1.2-1.7h10.3c1,0,2,0.6,2.3,1.6l11.7,31.7c0.2,0.5,0.9,0.5,1,0
		l10.6-31.5c0.3-1,1.3-1.7,2.3-1.7l11.3-0.1c1.1,0,1.6,0.6,1.2,1.7L192,107.5c-0.3,0.8-1,1.2-1.8,1.2H179
		C178.2,108.7,177.5,108.3,177.2,107.5z"/>
	<path class="st2" d="M377.1,83.8c0-14.8,9.7-26.1,23.7-26.1c7.5,0,11.5,0.9,16.3,4.6v-2.7c0-1.1,0.9-2,2-2l9.2,0.1c1.1,0,2,0.9,2,2
		v47.6c0,0.8-0.7,1.5-1.5,1.5h-10c-0.9,0-1.5-0.6-1.5-1.5l-0.2-2.6c-5.2,4.1-8.9,5.3-16.3,5.3C386.8,109.9,377.1,98.6,377.1,83.8z
		 M403.8,97.1c7.4,0,12.6-6.3,12.6-13.3c0-7.2-5.2-13.3-12.6-13.3c-7.4,0-12.9,5.4-12.9,13.3C390.9,91.8,396.4,97.1,403.8,97.1z"/>
	<path class="st2" d="M209.5,83.8c0-14.8,9.7-26.1,23.7-26.1c7.5,0,11.5,0.9,16.3,4.6v-2.7c0-1.1,0.9-2,2-2l9.2,0.1c1.1,0,2,0.9,2,2
		v47.6c0,0.8-0.7,1.5-1.5,1.5h-10c-0.9,0-1.5-0.6-1.5-1.5l-0.2-2.6c-5.2,4.1-8.9,5.3-16.3,5.3C219.1,109.9,209.5,98.6,209.5,83.8z
		 M236.1,97.1c7.4,0,12.6-6.3,12.6-13.3c0-7.2-5.2-13.3-12.6-13.3c-7.4,0-12.9,5.4-12.9,13.3C223.2,91.8,228.7,97.1,236.1,97.1z"/>
	<path class="st2" d="M282,108.7h-11.1c-0.8,0-1.5-0.7-1.5-1.5V42.9c0-0.9,0.8-1.7,1.7-1.7h10.8c0.9,0,1.7,0.8,1.7,1.7v64.2
		C283.5,108,282.9,108.7,282,108.7z"/>
	<path class="st2" d="M294.2,94.8v-25h-5.3c-0.8,0-1.5-0.7-1.5-1.5v-7.8c0-0.8,0.7-1.5,1.5-1.5h5.2V44c0-0.8,0.7-1.5,1.5-1.5h1.5
		c5.5,0,11.1,4.9,11.1,11.1v5.3h7.8c0.8,0,1.5,0.7,1.5,1.5v7.8c0,0.8-0.7,1.5-1.5,1.5h-7.8v23.5c0,3,1.7,4.4,4.4,4.4
		c0.9,0,1.9,0,3.2-0.1c1.1-0.1,1.8,0.4,1.8,1.4v8.5c0,2.3-5.1,1.9-8.4,1.9C301.3,109.3,294.2,105.6,294.2,94.8z"/>
	<path class="st2" d="M323.9,46.3c0-4.3,3.4-7.7,7.8-7.7c4.5,0,7.7,3.5,7.7,7.7c0,4.4-3.3,7.8-7.7,7.8
		C327.3,54.1,323.9,50.6,323.9,46.3z M324.6,60.4c0-0.8,0.7-1.5,1.5-1.5h11.1c0.8,0,1.5,0.7,1.5,1.5v46.8c0,0.8-0.7,1.5-1.5,1.5
		h-11.1c-0.8,0-1.5-0.7-1.5-1.5V60.4z"/>
	<path class="st2" d="M346.4,107.2V60.4c0-0.8,0.7-1.5,1.5-1.5h10.6c0.9,0,1.4,0.4,1.5,1.6v1.1c2.2-2.3,5.3-3.9,11.2-3.9
		c2.3,0,3.8,0.6,4.6,1.2c0.7,0.5,0.9,1.1,0.9,2v9c0,1.2-0.7,1.5-2,1.2c-1.1-0.3-2.2-0.5-3.7-0.5c-6.9,0-10.6,4.6-10.6,11.7v24.9
		c0,0.8-0.7,1.5-1.5,1.5h-11C347.1,108.7,346.4,108,346.4,107.2z"/>
</g>
</svg>
